<mxfile host="Electron" modified="2023-08-24T02:18:58.533Z" agent="Mozilla/5.0 (Windows NT 10.0; Win64; x64) AppleWebKit/537.36 (KHTML, like Gecko) draw.io/21.6.8 Chrome/114.0.5735.289 Electron/25.5.0 Safari/537.36" etag="ad6X4wDR_bxagf9zieMX" version="21.6.8" type="device">
  <diagram name="Page-1" id="c7558073-3199-34d8-9f00-42111426c3f3">
    <mxGraphModel dx="1418" dy="-341" grid="1" gridSize="10" guides="1" tooltips="1" connect="1" arrows="1" fold="1" page="1" pageScale="1" pageWidth="826" pageHeight="1169" background="none" math="0" shadow="0">
      <root>
        <mxCell id="0" />
        <mxCell id="1" parent="0" />
        <mxCell id="w0tIfuy8U9VWf7MgNWz0-96" value="" style="edgeStyle=orthogonalEdgeStyle;rounded=0;orthogonalLoop=1;jettySize=auto;html=1;dashed=1;" parent="1" edge="1">
          <mxGeometry relative="1" as="geometry">
            <mxPoint x="455" y="1482" as="sourcePoint" />
            <mxPoint x="455" y="1562" as="targetPoint" />
            <Array as="points">
              <mxPoint x="455" y="1532" />
              <mxPoint x="455" y="1532" />
            </Array>
          </mxGeometry>
        </mxCell>
        <mxCell id="w0tIfuy8U9VWf7MgNWz0-97" style="edgeStyle=orthogonalEdgeStyle;rounded=0;orthogonalLoop=1;jettySize=auto;html=1;entryX=0;entryY=0.5;entryDx=0;entryDy=0;" parent="1" source="w0tIfuy8U9VWf7MgNWz0-98" edge="1">
          <mxGeometry relative="1" as="geometry">
            <mxPoint x="670" y="1462" as="targetPoint" />
          </mxGeometry>
        </mxCell>
        <mxCell id="w0tIfuy8U9VWf7MgNWz0-98" value="MaxCompute" style="shape=image;aspect=fixed;image=data:image/svg+xml,PD94bWwgdmVyc2lvbj0iMS4wIiBzdGFuZGFsb25lPSJubyI/PjwhRE9DVFlQRSBzdmcgUFVCTElDICItLy9XM0MvL0RURCBTVkcgMS4xLy9FTiIgImh0dHA6Ly93d3cudzMub3JnL0dyYXBoaWNzL1NWRy8xLjEvRFREL3N2ZzExLmR0ZCI+PHN2ZyB0PSIxNjkyNjA4NTc4NDE1IiBjbGFzcz0iaWNvbiIgdmlld0JveD0iMCAwIDEwMjQgMTAyNCIgdmVyc2lvbj0iMS4xIiB4bWxucz0iaHR0cDovL3d3dy53My5vcmcvMjAwMC9zdmciIHAtaWQ9IjQxNzQiIHhtbG5zOnhsaW5rPSJodHRwOi8vd3d3LnczLm9yZy8xOTk5L3hsaW5rIiB3aWR0aD0iMjAwIiBoZWlnaHQ9IjIwMCI+PHBhdGggZD0iTTkxNC4zMzcxMDkgMzQuMTMzMzMzYzIwLjQxMTczMyAwIDM4LjA5MjggNy4zMDQ1MzMgNTMuMDQzMiAyMS45ODE4NjcgMTUuMDE4NjY3IDE0LjY3NzMzMyAyMi40NTk3MzMgMzIuNDk0OTMzIDIyLjQ1OTczNCA1My41MjEwNjd2ODA0LjcyNzQ2NmMwIDIxLjAyNjEzMy03LjUwOTMzMyAzOC45MTItMjIuNDU5NzM0IDUzLjUyMTA2Ny0xNS4wMTg2NjcgMTQuNjc3MzMzLTMyLjYzMTQ2NyAyMS45ODE4NjctNTMuMDQzMiAyMS45ODE4NjdIMTA4LjY1MzkwOWE3MS42OCA3MS42OCAwIDAgMS01Mi41NjUzMzMtMjEuOTgxODY3QTcyLjg0MDUzMyA3Mi44NDA1MzMgMCAwIDEgMzQuMTA2NzA5IDkxNC4zNjM3MzNWMTA5LjYzNjI2N2MwLTIxLjAyNjEzMyA3LjMwNDUzMy0zOC45MTIgMjEuOTgxODY3LTUzLjUyMTA2N0E3MS42OCA3MS42OCAwIDAgMSAxMDguNjUzOTA5IDM0LjEzMzMzM2g4MDUuNjgzMnogbS01ODAuOTQ5MzMzIDQzMy40MjUwNjdhNzguNjQzMiA3OC42NDMyIDAgMSAwLTQxLjA5NjUzMyAyMy4wNzQxMzNMMzg1LjYxMTc3NiA2NTYuNzI1MzMzYTk4LjMwNCA5OC4zMDQgMCAxIDAgMTE0LjI3ODQtMTQuNzQ1Nkw1NzQuNzc4NzA5IDM1NC42NDUzMzNjNS43MzQ0LTAuMjA0OCAxMS40MDA1MzMtMS4wMjQgMTYuOTMwMTM0LTIuNDU3Nmw5NS43NzgxMzMgMTQ4LjgyMTMzNGE3OC42NDMyIDc4LjY0MzIgMCAxIDAgMzkuNTk0NjY3LTI1LjZMNjMxLjkxNzkwOSAzMjcuMDY1NmE3OC42NDMyIDc4LjY0MzIgMCAxIDAtMTAyLjQ2ODI2NiAxNS4wMTg2NjdsLTc1LjA5MzMzNCAyODcuODgwNTMzYTk4LjM3MjI2NyA5OC4zNzIyNjcgMCAwIDAtMjcuNTExNDY2IDMuNTQ5ODY3TDMzMy4zODc3NzYgNDY3LjYyNjY2N3oiIGZpbGw9IiNGRjZBMDAiIHAtaWQ9IjQxNzUiPjwvcGF0aD48L3N2Zz4=;labelPosition=center;verticalLabelPosition=bottom;align=center;verticalAlign=top;" parent="1" vertex="1">
          <mxGeometry x="435" y="1432" width="60" height="60" as="geometry" />
        </mxCell>
        <mxCell id="w0tIfuy8U9VWf7MgNWz0-99" style="edgeStyle=orthogonalEdgeStyle;rounded=0;orthogonalLoop=1;jettySize=auto;html=1;entryX=0;entryY=0.5;entryDx=0;entryDy=0;entryPerimeter=0;" parent="1" source="w0tIfuy8U9VWf7MgNWz0-101" target="w0tIfuy8U9VWf7MgNWz0-113" edge="1">
          <mxGeometry relative="1" as="geometry" />
        </mxCell>
        <mxCell id="w0tIfuy8U9VWf7MgNWz0-100" style="edgeStyle=orthogonalEdgeStyle;rounded=0;orthogonalLoop=1;jettySize=auto;html=1;" parent="1" source="w0tIfuy8U9VWf7MgNWz0-101" target="w0tIfuy8U9VWf7MgNWz0-98" edge="1">
          <mxGeometry relative="1" as="geometry" />
        </mxCell>
        <mxCell id="w0tIfuy8U9VWf7MgNWz0-101" value="DataWorks" style="shape=image;aspect=fixed;image=data:image/svg+xml,PD94bWwgdmVyc2lvbj0iMS4wIiBzdGFuZGFsb25lPSJubyI/PjwhRE9DVFlQRSBzdmcgUFVCTElDICItLy9XM0MvL0RURCBTVkcgMS4xLy9FTiIgImh0dHA6Ly93d3cudzMub3JnL0dyYXBoaWNzL1NWRy8xLjEvRFREL3N2ZzExLmR0ZCI+PHN2ZyB0PSIxNjkyNjA4NjU1MzQ5IiBjbGFzcz0iaWNvbiIgdmlld0JveD0iMCAwIDEwMjQgMTAyNCIgdmVyc2lvbj0iMS4xIiB4bWxucz0iaHR0cDovL3d3dy53My5vcmcvMjAwMC9zdmciIHAtaWQ9IjUyNDQiIHhtbG5zOnhsaW5rPSJodHRwOi8vd3d3LnczLm9yZy8xOTk5L3hsaW5rIiB3aWR0aD0iMjAwIiBoZWlnaHQ9IjIwMCI+PHBhdGggZD0iTTM2OCA0MDhWODMyaC05NlYzNTJ6IiBmaWxsPSIjRkY2QTAwIiBwLWlkPSI1MjQ1Ij48L3BhdGg+PHBhdGggZD0iTTI3MiAzNTJsOTYgNTYgMjg4LTE4MC4wNTMzMzNWMTEyek04NDggMjI0bC05NiA2NHYxMTJsOTYtNjR6IiBmaWxsPSIjRkY2QTAwIiBvcGFjaXR5PSIuNSIgcC1pZD0iNTI0NiI+PC9wYXRoPjxwYXRoIGQ9Ik02NTYgMTEyVjgzMmg5NlYxNjh6TTg0OCAyMjR2NDk2aDk2VjI4MHoiIGZpbGw9IiNGRjZBMDAiIHAtaWQ9IjUyNDciPjwvcGF0aD48cGF0aCBkPSJNODAgMjQwbDk2IDU2IDI4OC0xODAuMDUzMzMzVjB6IiBmaWxsPSIjRkY2QTAwIiBvcGFjaXR5PSIuNSIgcC1pZD0iNTI0OCI+PC9wYXRoPjxwYXRoIGQ9Ik00NjQgMTE1LjkyNTMzM1Y5NjBoOTZWNTZMNDY0IDB6TTE3NiAyOTZ2NDMyaC05NlYyNDB6IiBmaWxsPSIjRkY2QTAwIiBwLWlkPSI1MjQ5Ij48L3BhdGg+PHBhdGggZD0iTTEyOCA3NjhhNjQgNjQgMCAxIDEgMC0xMjggNjQgNjQgMCAwIDEgMCAxMjh6TTg5NiA3NjhhNjQgNjQgMCAxIDEgMC0xMjggNjQgNjQgMCAwIDEgMCAxMjh6TTMyMCA4OTZhNjQgNjQgMCAxIDEgMC0xMjggNjQgNjQgMCAwIDEgMCAxMjh6TTcwNi4xOTczMzMgOTA0LjEwNjY2N2E2Ny40OTg2NjcgNjcuNDk4NjY3IDAgMSAxIDAtMTM0Ljk5NzMzNCA2Ny40OTg2NjcgNjcuNDk4NjY3IDAgMCAxIDAgMTM1LjAxODY2N3pNNTE0LjE5NzMzMyAxMDI0YTY3LjQ5ODY2NyA2Ny40OTg2NjcgMCAxIDEgMC0xMzQuOTk3MzMzIDY3LjQ5ODY2NyA2Ny40OTg2NjcgMCAwIDEgMCAxMzQuOTk3MzMzeiIgZmlsbD0iI0ZGNkEwMCIgcC1pZD0iNTI1MCI+PC9wYXRoPjwvc3ZnPg==;verticalAlign=top;labelPosition=center;verticalLabelPosition=bottom;align=center;" parent="1" vertex="1">
          <mxGeometry x="260" y="1432" width="60" height="60" as="geometry" />
        </mxCell>
        <mxCell id="w0tIfuy8U9VWf7MgNWz0-102" value="" style="edgeStyle=orthogonalEdgeStyle;rounded=0;orthogonalLoop=1;jettySize=auto;html=1;dashed=1;" parent="1" source="w0tIfuy8U9VWf7MgNWz0-103" target="w0tIfuy8U9VWf7MgNWz0-108" edge="1">
          <mxGeometry relative="1" as="geometry" />
        </mxCell>
        <mxCell id="w0tIfuy8U9VWf7MgNWz0-103" value="Spark计算引擎" style="shape=image;aspect=fixed;image=data:image/svg+xml,PD94bWwgdmVyc2lvbj0iMS4wIiBzdGFuZGFsb25lPSJubyI/PjwhRE9DVFlQRSBzdmcgUFVCTElDICItLy9XM0MvL0RURCBTVkcgMS4xLy9FTiIgImh0dHA6Ly93d3cudzMub3JnL0dyYXBoaWNzL1NWRy8xLjEvRFREL3N2ZzExLmR0ZCI+PHN2ZyB0PSIxNjkyNjEwOTQzNTgzIiBjbGFzcz0iaWNvbiIgdmlld0JveD0iMCAwIDEwMjQgMTAyNCIgdmVyc2lvbj0iMS4xIiB4bWxucz0iaHR0cDovL3d3dy53My5vcmcvMjAwMC9zdmciIHAtaWQ9IjM3MzE0IiB4bWxuczp4bGluaz0iaHR0cDovL3d3dy53My5vcmcvMTk5OS94bGluayIgd2lkdGg9IjIwMCIgaGVpZ2h0PSIyMDAiPjxwYXRoIGQ9Ik00NTYuNDg4Mjg4IDExLjc0MDg1NmMtMTcuNzE3NTExIDAuNTQxOTQ3LTM1LjIyNjU4MSA4Ljk2Mjk3Ni00OS44NTkxNjIgMjUuMjIxMzk4YTE0OS43ODU5MjUgMTQ5Ljc4NTkyNSAwIDAgMC0yMC41NTIzMTMgMzAuMDk4OTI1Yy0xNC43OTkzMzMgMjcuODA2MDcxLTE3LjcxNzUxMSA1OC45ODg4OTEtMjMuMTc4Njc0IDg5LjMzNzk0NmEyMzAwNy43NTE4MSAyMzAwNy43NTE4MSAwIDAgMC0zMC4yNjU2NzggMTcwLjM3OTkyN2MtMS4xMjU1ODMgNi42NzAxMjItNC4wMDIwNzMgOS40NjMyMzUtMTAuMTcxOTM2IDExLjM4MDg5NUMyNDguNzk3MzY2IDM2MS4zMzg2MjEgMTc1LjAwOTE0MiAzODQuNDMzOTE4IDEwMS42Mzc4MDEgNDA4LjM2Mjk4MWEyMDMuMTg4NTg5IDIwMy4xODg1ODkgMCAwIDAtNDYuNDQwNzI0IDIxLjA5NDI2Yy00My40MzkxNjkgMjcuNzIyNjk0LTQ5Ljg1OTE2MSA3My4wNzk1MjMtMTcuMzAwNjI4IDExMi45NzUxOSAxNC40MjQxMzkgMTcuNTkyNDQ3IDMyLjkzMzcyNyAyOS44MDcxMDcgNTMuNTI3NzI4IDM5LjAyMDIxNCA0NS44NTcwODggMjAuNDI3MjQ4IDkxLjc5NzU1MyA0MC42ODc3NDQgMTM3LjU3MTI2NSA2MS4yODE3NDUgMC43OTIwNzcgMC40MTY4ODMgMS41MDA3NzcgMC41NDE5NDcgMi4yMDk0NzggMC43OTIwNzdoLTAuMTY2NzUzbDU0LjQ0NDg3IDIyLjMwMzIyYzAgMC45NTg4MyAwLjA4MzM3NyAxLjg3NTk3MiAwIDMuMDQzMjQzLTguMzM3NjUyIDg0LjYyNzE3Mi0xNi4yNTg0MjIgMTY5LjM3OTQwOS0yNC4xNzkxOTIgMjU0LjA4OTk1Ny0xLjY2NzUzIDE3LjQ2NzM4Mi0wLjUwMDI1OSAzNC42NDI5NDYgNS41ODYyMjcgNTEuMjc2NTYyIDEzLjIxNTE3OSAzNi4yNjg3ODggNDQuMzk3OTk5IDQ3Ljg1ODEyNSA3OC40MTU2MjEgMjkuMjIzNDcyIDE1LjUwODAzMy04LjUwNDQwNSAyNy43NjQzODMtMjAuNzE5MDY2IDM5LjA2MTkwMS0zNC4xMDA5OTggNTcuMTk2Mjk1LTY3LjY2MDA0OSAxMTQuNDc1OTY4LTEzNS4yMzY3MjIgMTcxLjQ2MzgyMi0yMDMuMTA1MjEzIDQuNjI3Mzk3LTUuNTQ0NTM5IDguNTQ2MDk0LTYuMjUzMjM5IDE1LjEzMjgzOS00LjA4NTQ1IDE0LjU0OTIwMyA0Ljg3NzUyNyAyOS4wNTY3MTkgOS42Mjk5ODkgNDMuNTY0MjM0IDE0LjQ2NTgyN2gwLjA0MTY4OGMwLjgzMzc2NSAwLjUwMDI1OSAxLjg3NTk3MiAwLjgzMzc2NSAzLjA0MzI0MyAxLjI1MDY0OGw1LjkxOTczMyAxLjc1MDkwN2M1Mi4wMjY5NTEgMTcuMzQyMzE3IDExMS43MjQ1NDIgMzIuMzA4NDAzIDE2My43OTMxODIgNDkuNjA5MDMyIDE2LjY3NTMwNSA1LjUwMjg1MSAyNS45MzAwOTkgNi44MzY4NzUgNDMuNTY0MjM0IDQuMDg1NDUgMTIuOTY1MDQ5LTIuMDAxMDM3IDI0LjY3OTQ1MS0yLjU4NDY3MiAzNC41MTc4ODEtOS44Mzg0MyAyNS4wOTYzMzQtMTMuNzU3MTI2IDQxLjQ3OTgyMS0zOS44OTU2NjcgNDEuMTg4MDAzLTcwLjExOTY1Ny0wLjIwODQ0MS0xNy44MDA4ODgtNi40MTk5OTItMzMuODkyNTU3LTE0LjU5MDg5Mi00OS40NDIyNzktMzQuMTg0Mzc1LTY0Ljg2NjkzNi02OC4yNDM2ODUtMTI5Ljc3NTU2LTEwMi41OTQ4MTMtMTk0LjUxNzQzLTMuMjUxNjg0LTYuMTY5ODYzLTMuMTY4MzA4LTEwLjEzMDI0OCAxLjU0MjQ2Ni0xNS42MzMwOTkgNTcuNTcxNDktNjcuMzI2NTQzIDExNC44OTI4NS0xMzQuOTAzMjE2IDE3Mi4yOTc1ODctMjAyLjM5NjUxMiAxMS4zMzkyMDctMTMuMzQwMjQ0IDIxLjM4NjA3OC0yNy40MzA4NzYgMjcuMjIyNDM1LTQ0LjEwNjE4MSAxMi44Mzk5ODUtMzYuNjAyMjk0LTMuNzUxOTQ0LTY1LjQ1MDU3MS00MS42ODgyNjItNzIuNTc5MjY0YTExNi4wMTg0MzMgMTE2LjAxODQzMyAwIDAgMC01MS40ODUwMDQgMi44NzY0OWMtODIuMjkyNjI5IDIxLjcxOTU4NS0xNjQuNTQzNTcgNDMuMzk3NDgxLTI0Ni43MTExMzQgNjUuNDUwNTcxLTcuMjk1NDQ2IDEuOTU5MzQ4LTEwLjgzODk0OCAwLjYyNTMyNC0xNC43OTkzMzQtNi4wMDMxMDlhMTQ3MTkuMjkxNTU1IDE0NzE5LjI5MTU1NSAwIDAgMC0xMDAuOTI3MjgyLTE2Ny41MDM0MzcgMTkyLjE4Mjg4OCAxOTIuMTgyODg4IDAgMCAwLTI3LjE4MDc0Ny0zNS4zOTMzMzVjLTE1LjQ2NjM0NS0xNS40MjQ2NTctMzMuNDMzOTg2LTIyLjg4Njg1Ni01MS4xNTE0OTctMjIuMzQ0OTA4TDQ1Ni40ODgyODggMTEuNzQwODU2eiBtNy4yMTIwNjkgMTU0LjQxMzMyMmEyNC42Nzk0NTEgMjQuNjc5NDUxIDAgMCAxIDcuODc5MDgxIDguNzk2MjI0YzM2LjI2ODc4OCA2MC4yODEyMjcgNzIuNjIwOTUyIDEyMC40NzkwNzcgMTA4Ljc2NDY3NiAxODAuODQzNjggMi45MTgxNzggNC45MTkyMTUgNS42Mjc5MTUgNi42NzAxMjIgMTEuNTQ3NjQ5IDUuMDQ0MjggNjMuNTc0Ni0xNy4wOTIxODcgMTI3LjIzMjU3Ni0zMy44OTI1NTcgMTkwLjg5MDU1MS01MC43MzQ2MTUgMTUuMjk5NTkyLTQuMDg1NDUgMzAuNjQwODczLTguMDQ1ODM1IDQ1Ljk4MjE1My0xMi4wNDc5MDhhMTYuNjMzNjE3IDE2LjYzMzYxNyAwIDAgMS00LjE2ODgyNiA4LjMzNzY1M2MtNTIuNDg1NTIyIDYxLjY5ODYyOC0xMDQuODg3NjY3IDEyMy40ODA2MzItMTU3LjUzOTk0MiAxODUuMDEyNTA3LTQuNTg1NzA5IDUuNDE5NDc0LTUuMDAyNTkxIDkuMTcxNDE4LTEuNjY3NTMgMTUuNDI0NjU3IDM5LjA2MTkwMiA3NS4xNjM5MzYgNzMuNzA0ODQ3IDEzNy45NDY0NTkgMTA0LjEzNzI3OCAxOTguNDM2MTI3bC0xNTQuMDc5ODE2LTQyLjQ4MDMzOWMtMjIuNDI4Mjg1LTcuNTAzODg3LTQ0Ljg5ODI1OC0xNC45MjQzOTgtNjcuMzI2NTQ0LTIyLjQ2OTk3My02Ljc5NTE4Ny0yLjI5Mjg1NC0xMC40MjIwNjYtMS4yNTA2NDgtMTUuMDA3Nzc0IDQuMTY4ODI2LTUyLjAyNjk1MSA2Mi4wMzIxMzQtMTA0LjM4NzQwOCAxMjMuODE0MTM4LTE1Ni43MDYxNzcgMTg1LjY3OTUxOWExNi41OTE5MjggMTYuNTkxOTI4IDAgMCAxLTcuNTAzODg3IDUuNTAyODVjMS40NTkwODktMTUuNzU4MTYzIDIuODM0ODAyLTMxLjU1ODAxNCA0LjMzNTU3OS00Ny4zNTc4NjUgNi4yMTE1NTEtNjUuNTMzOTQ4IDEyLjM4MTQxNC0xMzEuMDY3ODk2IDE4LjgwMTQwNi0xOTYuNjAxODQ0LTEuMjUwNjQ4LTEzLjI1Njg2NyA0Ljg3NzUyNy0xNi44ODM3NDYtMTMuNDIzNjItMjIuNzIwMTAzLTYyLjI0MDU3NS0yNC43MjExMzktMTM5LjQ4ODkyNS01NS4wNzAxOTQtMjAwLjc3MDY3LTc5LjQxNjEzOWEyNC44MDQ1MTYgMjQuODA0NTE2IDAgMCAxIDEwLjAwNTE4My01LjU4NjIyN2M3NC45MTM4MDctMjMuNzYyMzA5IDE0OS44NjkzMDItNDcuNTI0NjE5IDIyNC44NjY0ODUtNzEuMDc4NDg3IDUuMjk0NDA5LTEuNjY3NTMgOC4yOTU5NjQtMy44MzUzMiA4Ljc5NjIyNC05LjcxMzM2NSAwLjU0MTk0Ny02LjE2OTg2MyAyLjA4NDQxMy0xMi4yNTYzNDkgMy4xNjgzMDgtMTguMzg0NTIzIDEwLjA0Njg3MS01Ni44MjExMDEgMjAuMTM1NDMxLTExMy42NDIyMDIgMzAuMjY1Njc4LTE3MC40MjE2MTYgMi44MzQ4MDItMTYuMDkxNjY5IDUuODM2MzU3LTMyLjE0MTY1IDguNzU0NTM1LTQ4LjIzMzMxOXoiIHAtaWQ9IjM3MzE1Ij48L3BhdGg+PC9zdmc+;verticalAlign=top;labelPosition=center;verticalLabelPosition=bottom;align=center;" parent="1" vertex="1">
          <mxGeometry x="553" y="1562" width="60" height="60" as="geometry" />
        </mxCell>
        <mxCell id="w0tIfuy8U9VWf7MgNWz0-104" style="edgeStyle=orthogonalEdgeStyle;rounded=0;orthogonalLoop=1;jettySize=auto;html=1;" parent="1" source="w0tIfuy8U9VWf7MgNWz0-105" target="w0tIfuy8U9VWf7MgNWz0-101" edge="1">
          <mxGeometry relative="1" as="geometry" />
        </mxCell>
        <mxCell id="w0tIfuy8U9VWf7MgNWz0-105" value="数据分析" style="shape=image;aspect=fixed;image=data:image/svg+xml,PD94bWwgdmVyc2lvbj0iMS4wIiBzdGFuZGFsb25lPSJubyI/PjwhRE9DVFlQRSBzdmcgUFVCTElDICItLy9XM0MvL0RURCBTVkcgMS4xLy9FTiIgImh0dHA6Ly93d3cudzMub3JnL0dyYXBoaWNzL1NWRy8xLjEvRFREL3N2ZzExLmR0ZCI+PHN2ZyB0PSIxNjkyNjEwNzY3MzM0IiBjbGFzcz0iaWNvbiIgdmlld0JveD0iMCAwIDEwMjQgMTAyNCIgdmVyc2lvbj0iMS4xIiB4bWxucz0iaHR0cDovL3d3dy53My5vcmcvMjAwMC9zdmciIHAtaWQ9IjMzMzk4IiB4bWxuczp4bGluaz0iaHR0cDovL3d3dy53My5vcmcvMTk5OS94bGluayIgd2lkdGg9IjIwMCIgaGVpZ2h0PSIyMDAiPjxwYXRoIGQ9Ik05MDMgOTI5LjVIMTMyLjVjLTIwLjEgMC0zNi41LTE2LjQtMzYuNS0zNi42VjExOS41YzAtMTMuOCAxMS4yLTI1IDI1LTI1czI1IDExLjIgMjUgMjV2NzYwaDc1N2MxMy44IDAgMjUgMTEuMiAyNSAyNXMtMTEuMiAyNS0yNSAyNXoiIHAtaWQ9IjMzMzk5IiBmaWxsPSIjZWViMTczIj48L3BhdGg+PHBhdGggZD0iTTI0MSA1MzYuN2g1MFY3OTZoLTUwek00MTcuNyA0NTguNWg1MFY3OTZoLTUwek01OTQuMyA1MzYuN2g1MFY3OTZoLTUwek03NzEgNDExaDUwdjM4NWgtNTB6TTI0Ni45IDQ2Ny4yTDIxNyA0MjYuOGwyMTguOS0xNTYuOSAxODUuOCAxMTQuMyAxODIuOC0xNTAuNCAzMi41IDM4LjQtMjExIDE3My42LTE4Ny45LTExNS43eiIgcC1pZD0iMzM0MDAiIGZpbGw9IiNlZWIxNzMiPjwvcGF0aD48cGF0aCBkPSJNNzE1LjIgMTg0LjJsMTk0LjYtMy45LTQzLjkgMTg3IiBwLWlkPSIzMzQwMSIgZmlsbD0iI2VlYjE3MyI+PC9wYXRoPjwvc3ZnPg==;verticalAlign=top;labelPosition=center;verticalLabelPosition=bottom;align=center;" parent="1" vertex="1">
          <mxGeometry x="93" y="1562" width="60" height="60" as="geometry" />
        </mxCell>
        <mxCell id="Yg9d-aaJOnei6kyVU1WB-2" style="edgeStyle=elbowEdgeStyle;rounded=0;orthogonalLoop=1;jettySize=auto;html=1;exitX=0.75;exitY=0;exitDx=0;exitDy=0;dashed=1;" edge="1" parent="1" source="w0tIfuy8U9VWf7MgNWz0-108" target="w0tIfuy8U9VWf7MgNWz0-98">
          <mxGeometry relative="1" as="geometry" />
        </mxCell>
        <mxCell id="w0tIfuy8U9VWf7MgNWz0-108" value="数仓分层" style="shape=image;aspect=fixed;image=data:image/svg+xml,PD94bWwgdmVyc2lvbj0iMS4wIiBzdGFuZGFsb25lPSJubyI/PjwhRE9DVFlQRSBzdmcgUFVCTElDICItLy9XM0MvL0RURCBTVkcgMS4xLy9FTiIgImh0dHA6Ly93d3cudzMub3JnL0dyYXBoaWNzL1NWRy8xLjEvRFREL3N2ZzExLmR0ZCI+PHN2ZyB0PSIxNjkyNjEyNDEyOTc4IiBjbGFzcz0iaWNvbiIgdmlld0JveD0iMCAwIDEwMjQgMTAyNCIgdmVyc2lvbj0iMS4xIiB4bWxucz0iaHR0cDovL3d3dy53My5vcmcvMjAwMC9zdmciIHAtaWQ9IjM5MTY1IiB4bWxuczp4bGluaz0iaHR0cDovL3d3dy53My5vcmcvMTk5OS94bGluayIgd2lkdGg9IjIwMCIgaGVpZ2h0PSIyMDAiPjxwYXRoIGQ9Ik05NjQuODE2MTE2IDY0MS43NDI0NjNsLTM4OC4xOTgxNjIgMCAwIDE1OC4wOTIyOTUgMzg4LjE5ODE2MiAwYzEzLjczOTE4MSAwIDIwLjYxMTE0OC02Ljg3MDA2NiAyNy40ODAyNjQtMTMuNzQxMDgyIDYuODcxMDE2LTYuODcwMDY2IDEzLjc0MDEzMi0xMy43MzgyMzEgMTMuNzQwMTMyLTI3LjUxOTIyOGwwLTc1LjU3MTY3NWMwLTEzLjczOTE4MS02Ljg2OTExNi0yMC42NTAxMTItMTMuNzQwMTMyLTI3LjUyMDE3OEM5ODUuNDI3MjY0IDY0OC42MTI1MjkgOTc4LjU1NTI5NyA2NDEuNzQyNDYzIDk2NC44MTYxMTYgNjQxLjc0MjQ2M3pNMTgwLjYyMTIzNSAxNTcuOTcwNjUxbDEzMC41NzExNjcgMGMxMy43ODA5OTcgMCAyMC42MTAxOTgtNi43MDg1MDcgMjcuNDc5MzEzLTEzLjYxODQ4NyA2LjkxMTg4MS02Ljg3MTAxNiAxMy43ODA5OTctMTMuNzQxMDgyIDEzLjc4MDk5Ny0yNy41MjExMjlMMzUyLjQ1MjcxMiA0MS4xMzk2MTZjMC02Ljc0OTM3MiAwLTIwLjQ4OTUwMy0xMy43ODA5OTctMjcuMzU4NjE5QzMzMS44MDI1OTkgNi44NzAwNjYgMzI0Ljk3MzM5OCAwIDMxMS4xOTI0MDIgMEwxODAuNjIxMjM1IDBjLTEzLjczOTE4MSAwLTIwLjU3MDI4MyA2Ljg3MDA2Ni0yNy40ODAyNjQgMTMuNzgwOTk3LTYuODY5MTE2IDYuODcwMDY2LTEzLjc0MDEzMiAxMy43NDAxMzItMTMuNzQwMTMyIDI3LjM1ODYxOWwwIDc1LjY5MTQxOWMwIDEzLjc4MDA0NiA2Ljg3MTAxNiAyMC42NTAxMTIgMTMuNzQwMTMyIDI3LjUyMTEyOUMxNjAuMDUxOTAyIDE1MS4yNjMwOTQgMTY2Ljg4MjA1NCAxNTcuOTcwNjUxIDE4MC42MjEyMzUgMTU3Ljk3MDY1MXpNOTY0LjgxNjExNiA0MTkuMTkyODEzbC0zODguMTk4MTYyIDAgMCAxNTguMTMzMTYgMzg4LjE5ODE2MiAwYzEzLjczOTE4MSAwIDIwLjYxMTE0OC02Ljg3MDA2NiAyNy40ODAyNjQtMTMuNzQxMDgyIDYuODcxMDE2LTYuOTA5OTgxIDEzLjc0MDEzMi0xMy43ODAwNDYgMTMuNzQwMTMyLTI3LjUyMDE3OGwwLTc1LjU3MDcyNWMwLTEzLjc4MDk5Ny02Ljg2OTExNi0yMC42NTAxMTItMTMuNzQwMTMyLTI3LjUyMDE3OEM5ODUuNDI3MjY0IDQyNi4xMDM3NDQgOTc4LjU1NTI5NyA0MTkuMTkyODEzIDk2NC44MTYxMTYgNDE5LjE5MjgxM3pNOTkyLjI5NjM3OSAxMy43ODA5OTdDOTg1LjQyNzI2NCA2Ljg3MDA2NiA5NzguNTU1Mjk3IDAgOTY0LjgxNjExNiAwTDQ0MS44MDQ0MzMgMGMtMTMuNzQwMTMyIDAtMjAuNjEwMTk4IDYuODcwMDY2LTI3LjQ4MTIxNCAxMy43ODA5OTctNi44NjkxMTYgNi44NzAwNjYtMTMuNzM4MjMxIDEzLjc0MDEzMi0xMy43MzgyMzEgMjcuMzU4NjE5bDAgNzUuNjkxNDE5YzAgMTMuNzgwMDQ2IDYuODY5MTE2IDIwLjY1MDExMiAxMy43MzgyMzEgMjcuNTIxMTI5IDYuODcxOTY3IDYuOTA5OTgxIDEzLjc0MTA4MiAxMy42MTg0ODcgMjcuNDgxMjE0IDEzLjYxODQ4N2w1MjMuMDExNjgzIDBjMTMuNzM5MTgxIDAgMjAuNjExMTQ4LTYuNzA4NTA3IDI3LjQ4MDI2NC0xMy42MTg0ODcgNi44NzEwMTYtNi44NzEwMTYgMTMuNzQwMTMyLTEzLjc0MTA4MiAxMy43NDAxMzItMjcuNTIxMTI5TDEwMDYuMDM2NTExIDQxLjEzOTYxNkMxMDA2LjAzNjUxMSAzNC4zOTExOTQgOTk5LjE2ODM0NiAyMC42NTAxMTIgOTkyLjI5NjM3OSAxMy43ODA5OTd6TTk2NC44MTYxMTYgMjA2LjE0MTg5MWwtMzg4LjE5ODE2MiAwIDAgMTU4LjEzMjIxIDM4OC4xOTgxNjIgMGMxMy43MzkxODEgMCAyMC42MTExNDgtNi44NzAwNjYgMjcuNDgwMjY0LTEzLjc0MDEzMiA2Ljg3MTAxNi02LjkxMDkzMSAxMy43NDAxMzItMTMuNzgwOTk3IDEzLjc0MDEzMi0yNy41MjExMjlMMTAwNi4wMzY1MTEgMjQ3LjQ0MjExNmMwLTYuODcwMDY2LTYuODY5MTE2LTEzLjc4MDA0Ni0xMy43NDAxMzItMjcuNTIwMTc4Qzk4NS40MjcyNjQgMjEzLjA1MjgyMiA5NzguNTU1Mjk3IDIwNi4xNDE4OTEgOTY0LjgxNjExNiAyMDYuMTQxODkxek0zMDcuMzkzODYxIDcyNy42MTc4MTJjLTQ1Ljk4OTI0MiAwLTkyLjAxODM5OC01LjEzMTg3OS0xMzIuOTE0NzI1LTE1LjM1NTcyMy00MC44OTYzMjctMTAuMjIzODQ0LTc2LjY2MTcyNC0yNS40OTk3MzgtOTcuMTA5NDEzLTM1LjcyNDUzM2wwIDUxLjA4MDI1NmMwIDE1LjM1NjY3NCAxMC4xODI5NzkgMzAuNzEyMzk3IDMwLjYzMTYxOCA0MC45MzgxNDIgMjAuNDQ4NjM5IDE1LjIzNDA3OSA0Ni4wMjkxNTYgMjUuNTAwNjg5IDgxLjc5MzYwNCAzMC42MzE2MTggMzUuODA1MzEyIDUuMDkxMDE0IDc2LjcwMjU4OSAxMC4yMjQ3OTQgMTE3LjU5ODkxNiAxMC4yMjQ3OTQgNDAuODk4MjI3IDAgODEuNzk0NTU0LTUuMTMyODMgMTE3LjU5OTg2Ni0xMC4yMjQ3OTQgMzAuNjMyNTY4LTEwLjI2NDcwOSA2MS4zNDQ5NjUtMjAuNDA4NzI0IDgxLjc5NDU1NC0zMC42MzE2MTggMjAuNDQ2NzM4LTE1LjM1NTcyMyAzMC42NzI0ODMtMjUuNTgxNDY4IDMwLjY3MjQ4My00MC45MzgxNDJsMC01MS4wODAyNTZjLTI1LjU4MjQxOSAxNS4zNTc2MjQtNTYuMjU0OTAxIDI1LjUwMDY4OS05Ny4xNTEyMjggMzUuNzI0NTMzQzM5OS40NTEyMjMgNzIyLjQ4NDk4MiAzNTMuMzgyMTUyIDcyNy42MTc4MTIgMzA3LjM5Mzg2MSA3MjcuNjE3ODEyek0zMDcuMzkzODYxIDYwOS45Nzg5ODFjLTQ1Ljk4OTI0MiAwLTkyLjAxODM5OC01LjAxMDIzNS0xMzIuOTE0NzI1LTE1LjIzNTAyOS00MC44OTYzMjctMTAuMjI0Nzk0LTc2LjY2MTcyNC0yMC40ODk1MDMtOTcuMTA5NDEzLTM1Ljg0NjE3N2wwIDUxLjA4MTIwNmMwIDE1LjM1NjY3NCAxMC4xODI5NzkgMzAuNzEyMzk3IDMwLjYzMTYxOCA0MC45NzcxMDYgMjAuNDQ4NjM5IDE1LjMxNTgwOSA0Ni4wMjkxNTYgMjUuNTgxNDY4IDgxLjc5MzYwNCAzMC43MTIzOTcgMzUuODA1MzEyIDUuMDkyOTE1IDc2LjcwMjU4OSAxMC4yMjY2OTUgMTE3LjU5ODkxNiAxMC4yMjY2OTUgNDAuODk4MjI3IDAgODEuNzk0NTU0LTUuMTMyODMgMTE3LjU5OTg2Ni0xMC4yMjY2OTUgMzAuNjMyNTY4LTEwLjI2Mzc1OSA2MS4zNDQ5NjUtMjAuNDg4NTUzIDgxLjc5NDU1NC0zMC43MTIzOTcgMjAuNDQ2NzM4LTE1LjM1NTcyMyAzMC42NzI0ODMtMjUuNjIwNDMyIDMwLjY3MjQ4My00MC45NzcxMDZsMC01MS4wODEyMDZjLTI1LjU4MjQxOSAxNS4zNTY2NzQtNTYuMjU0OTAxIDI1LjYyMTM4My05Ny4xNTEyMjggMzUuODQ2MTc3QzM5OS40NTEyMjMgNjA0Ljk2Nzc5NiAzNTMuMzgyMTUyIDYwOS45Nzg5ODEgMzA3LjM5Mzg2MSA2MDkuOTc4OTgxek0zMDcuMzkzODYxIDQ5Mi40NTk4OTRjLTQ1Ljk4OTI0MiAwLTkyLjAxODM5OC01LjA5MTAxNC0xMzIuOTE0NzI1LTE1LjM1NTcyMy00MC44OTYzMjctNS4wOTE5NjUtNzYuNjYxNzI0LTIwLjQ0OTU4OS05Ny4xMDk0MTMtMzUuODA1MzEybDAgNTEuMTYxMDM2YzAgMTUuMzU2Njc0IDEwLjE4Mjk3OSAyNS41ODE0NjggMzAuNjMxNjE4IDQwLjg1NjQxMiAyMC40NDg2MzkgMTUuMzU2Njc0IDQ2LjAyOTE1NiAyNS41ODA1MTggODEuNzkzNjA0IDMwLjcxMjM5NyAzNS44MDUzMTIgNS4xMzI4MyA3Ni43MDI1ODkgMTAuMjI0Nzk0IDExNy41OTg5MTYgMTAuMjI0Nzk0IDQwLjg5ODIyNyAwIDg2LjkyNzM4NCAwIDExNy41OTk4NjYtMTAuMjI0Nzk0IDMwLjYzMjU2OC0xMC4yMjQ3OTQgNjEuMzQ0OTY1LTE1LjM1NTcyMyA4MS43OTQ1NTQtMzAuNzEyMzk3IDIwLjQ0NjczOC0xNS4yNzQ5NDQgMzAuNjcyNDgzLTI1LjQ5OTczOCAzMC42NzI0ODMtNDAuODU2NDEybDAtNTEuMTYxMDM2Yy0yNS41ODI0MTkgMTUuMzU1NzIzLTU2LjI1NDkwMSAyNS41ODE0NjgtOTcuMTUxMjI4IDM1LjgwNTMxMkMzOTkuNDUxMjIzIDQ4Ny4zNjg4OCAzNTMuMzgyMTUyIDQ5Mi40NTk4OTQgMzA3LjM5Mzg2MSA0OTIuNDU5ODk0ek01MDYuNzg4MjgxIDMwMy4yOTEyMTljLTIwLjQ0OTU4OS0xNS4zNTY2NzQtNDUuOTg5MjQyLTI1LjU4MDUxOC04MS43OTQ1NTQtMzAuNzEyMzk3LTM1LjgwNTMxMi01LjAxMTE4NS03Ni43MDE2MzktMTAuMTQzMDY1LTExNy41OTk4NjYtMTAuMTQzMDY1LTQwLjg5NjMyNyAwLTgxLjc5MzYwNCA1LjEzMTg3OS0xMTcuNTk4OTE2IDEwLjE0MzA2NS0zNS43NjQ0NDcgNS4xMzI4My02MS4zNDQ5NjUgMTUuMzU2Njc0LTgxLjc5MzYwNCAzMC43MTIzOTdTNzcuMzY5NzIzIDMyOC44NzI2ODcgNzcuMzY5NzIzIDM0NC4yMjkzNjFsMCA0MC44NTY0MTJjMCAxNS4zNTY2NzQgMTAuMTgyOTc5IDI1LjU4MTQ2OCAzMC42MzE2MTggNDAuOTM3MTkyIDIwLjQ0ODYzOSAxNS4yNzU4OTQgNDYuMDI5MTU2IDI1LjQ5OTczOCA4MS43OTM2MDQgMzAuNjMxNjE4IDM1LjgwNTMxMiA1LjA5MTk2NSA3Ni43MDI1ODkgMTAuMjI1NzQ1IDExNy41OTg5MTYgMTAuMjI1NzQ1IDQwLjg5ODIyNyAwIDg2LjkyNzM4NCAwIDExNy41OTk4NjYtMTAuMjI1NzQ1IDMwLjY3MjQ4My0xMC4yNjQ3MDkgNjEuMzQ0OTY1LTE1LjM1NTcyMyA4MS43OTQ1NTQtMzAuNjMxNjE4IDIwLjQ0NjczOC0xNS4zNTU3MjMgMzAuNjcyNDgzLTI1LjU4MDUxOCAzMC42NzI0ODMtNDAuOTM3MTkybDAtNDAuODU2NDEyQzUzNy40NjA3NjQgMzI4Ljg3MjY4NyA1MjcuMjM1MDE5IDMxMy41MTYwMTMgNTA2Ljc4ODI4MSAzMDMuMjkxMjE5eiIgZmlsbD0iIzcwNzA3MCIgcC1pZD0iMzkxNjYiPjwvcGF0aD48L3N2Zz4=;verticalAlign=top;labelPosition=center;verticalLabelPosition=bottom;align=center;" parent="1" vertex="1">
          <mxGeometry x="435" y="1562" width="60" height="60" as="geometry" />
        </mxCell>
        <mxCell id="w0tIfuy8U9VWf7MgNWz0-109" style="edgeStyle=orthogonalEdgeStyle;rounded=0;orthogonalLoop=1;jettySize=auto;html=1;entryX=0.5;entryY=0;entryDx=0;entryDy=0;" parent="1" source="w0tIfuy8U9VWf7MgNWz0-110" target="w0tIfuy8U9VWf7MgNWz0-101" edge="1">
          <mxGeometry relative="1" as="geometry" />
        </mxCell>
        <mxCell id="w0tIfuy8U9VWf7MgNWz0-110" value="数据开发" style="shape=image;aspect=fixed;image=data:image/svg+xml,PD94bWwgdmVyc2lvbj0iMS4wIiBzdGFuZGFsb25lPSJubyI/PjwhRE9DVFlQRSBzdmcgUFVCTElDICItLy9XM0MvL0RURCBTVkcgMS4xLy9FTiIgImh0dHA6Ly93d3cudzMub3JnL0dyYXBoaWNzL1NWRy8xLjEvRFREL3N2ZzExLmR0ZCI+PHN2ZyB0PSIxNjkyNjE0OTA4NDk5IiBjbGFzcz0iaWNvbiIgdmlld0JveD0iMCAwIDEwMjQgMTAyNCIgdmVyc2lvbj0iMS4xIiB4bWxucz0iaHR0cDovL3d3dy53My5vcmcvMjAwMC9zdmciIHAtaWQ9IjQ1MzQ3IiB4bWxuczp4bGluaz0iaHR0cDovL3d3dy53My5vcmcvMTk5OS94bGluayIgd2lkdGg9IjIwMCIgaGVpZ2h0PSIyMDAiPjxwYXRoIGQ9Ik05MTkuMTEzMTQzIDMyNS40ODU3MTRIMTA0LjgxMzcxNHYtNjcuODAzNDI4aDgxNC4yOTk0Mjl2LTEzMy4xMmEzNi41NzE0MjkgMzYuNTcxNDI5IDAgMCAwLTM2LjU3MTQyOS0zNi41NzE0MjlIMTQxLjM4NTE0M2EzNi41NzE0MjkgMzYuNTcxNDI5IDAgMCAwLTM2LjU3MTQyOSAzNi41NzE0MjlMMTAzLjg2Mjg1NyA4NjUuNjQ1NzE0YTM2LjQyNTE0MyAzNi40MjUxNDMgMCAwIDAgMzYuNTcxNDI5IDM2LjU3MTQyOWg2NzMuODY1MTQzYTMzLjkzODI4NiAzMy45MzgyODYgMCAxIDEgMCA2Ny44NzY1NzFoLTcwNS4wOTcxNDMtMC4xNDYyODZhNzMuMTQyODU3IDczLjE0Mjg1NyAwIDAgMS03My4wNjk3MTQtNzMuMTQyODU3TDM2LjkzNzE0MyA5My4xODRhNzMuMTQyODU3IDczLjE0Mjg1NyAwIDAgMSA3My4xNDI4NTctNzMuMTQyODU3aDgwMy42OTM3MTRhNzMuMTQyODU3IDczLjE0Mjg1NyAwIDAgMSA3My4xNDI4NTcgNzMuMTQyODU3djcwMy4yNjg1NzFhMzMuOTM4Mjg2IDMzLjkzODI4NiAwIDAgMS02Ny44MDM0MjggMFYzMjUuNDg1NzE0ek0yMDYuNjI4NTcxIDIxNS44NDQ1NzFhMzMuOTM4Mjg2IDMzLjkzODI4NiAwIDEgMSAwLTY3LjgwMzQyOCAzMy45MzgyODYgMzMuOTM4Mjg2IDAgMCAxIDAgNjcuODAzNDI4eiBtMjAzLjU1NjU3MiAwYTMzLjkzODI4NiAzMy45MzgyODYgMCAxIDEgMC02Ny44MDM0MjggMzMuOTM4Mjg2IDMzLjkzODI4NiAwIDAgMSAwIDY3LjgwMzQyOHogbS0xMDEuODE0ODU3IDBhMzMuOTM4Mjg2IDMzLjkzODI4NiAwIDEgMSAwLTY3LjgwMzQyOCAzMy45MzgyODYgMzMuOTM4Mjg2IDAgMCAxIDAgNjcuODAzNDI4eiBtMzQuODg5MTQzIDI1MC4xNDg1NzJjNy4xNjgtNy4wOTQ4NTcgMjYuMTEyLTcuMDk0ODU3IDMzLjI4IDAgNy4xNjggNy4wOTQ4NTcgNy4xNjggMjkuNDc2NTcxIDAgMzcuMTU2NTcxTDI2NS44NzQyODYgNjEwLjc0Mjg1NyAzNzMuNzYgNzEyLjkyMzQyOWM3LjE2OCA3LjA5NDg1NyA4LjExODg1NyAyNy4zNTU0MjkgMCAzNS4zMjgtOS44MDExNDMgOS43MjgtMjkuODQyMjg2IDguMTkyLTM2LjU3MTQyOSAxLjYwOTE0MmwtMTI2LjAyNTE0Mi0xMjUuODA1NzE0YTE4LjQzMiAxOC40MzIgMCAwIDEgMC0yNS45NjU3MTRsMTMyLjA5Ni0xMzIuMDk2eiBtMzQzLjQ3ODg1NyAwbDEzMi4wOTYgMTMyLjA5NmExOC40MzIgMTguNDMyIDAgMCAxIDAgMjYuMDM4ODU3bC0xMjYuMDk4Mjg2IDEyNS43MzI1NzFjLTYuNjU2IDYuNTgyODU3LTI1LjYgMTAuNzUyLTM2LjU3MTQyOSAwLTEwLjMxMzE0My0xMC4yNC03LjA5NDg1Ny0zMS4zMDUxNDMgMC0zOC40bDEwOC4zOTc3MTUtMTAwLjcxNzcxNC0xMTEuOTA4NTcyLTEwOC42OTAyODZjLTcuMTY4LTcuNjgtOS41MDg1NzEtMjYuNjI0IDAtMzYuMDU5NDI4IDkuMjg5MTQzLTkuMTQyODU3IDI2LjkxNjU3MS03LjA5NDg1NyAzNC4wODQ1NzIgMHogbS0xMzUuNjgtMjYuMzMxNDI5YzMuNjU3MTQzLTkuNTA4NTcxIDIxLjQzMDg1Ny0xNS41MDYyODYgMzIuNzY4LTExLjI2NCAxMC44MjUxNDMgNC4wMjI4NTcgMTcuMTg4NTcxIDE5LjAxNzE0MyAxNC4xODk3MTQgMjguNTI1NzE1bC0xMTkuODA4IDMyOS45NDc0MjhjLTMuNjU3MTQzIDkuNTA4NTcxLTIwLjY5OTQyOSAxMy4yMzg4NTctMzAuMjgxMTQzIDkuNzI4LTEwLjE2Njg1Ny0zLjU4NC0yMS4yMTE0MjktMTcuNTU0Mjg2LTE3LjU1NDI4Ni0yNy4wNjI4NTdsMTIwLjY4NTcxNS0zMjkuODc0Mjg2eiIgZmlsbD0iI2ZmNmEwMCIgcC1pZD0iNDUzNDgiPjwvcGF0aD48L3N2Zz4=;verticalAlign=top;labelPosition=center;verticalLabelPosition=bottom;align=center;" parent="1" vertex="1">
          <mxGeometry x="97" y="1312" width="60" height="60" as="geometry" />
        </mxCell>
        <mxCell id="w0tIfuy8U9VWf7MgNWz0-111" value="" style="edgeStyle=orthogonalEdgeStyle;rounded=0;orthogonalLoop=1;jettySize=auto;html=1;" parent="1" source="w0tIfuy8U9VWf7MgNWz0-113" target="w0tIfuy8U9VWf7MgNWz0-98" edge="1">
          <mxGeometry relative="1" as="geometry" />
        </mxCell>
        <mxCell id="w0tIfuy8U9VWf7MgNWz0-112" value="&lt;font style=&quot;font-size: 12px;&quot;&gt;数据采集&lt;/font&gt;" style="edgeLabel;html=1;align=left;verticalAlign=top;resizable=0;points=[];labelPosition=right;verticalLabelPosition=bottom;" parent="w0tIfuy8U9VWf7MgNWz0-111" vertex="1" connectable="0">
          <mxGeometry x="-0.0333" y="5" relative="1" as="geometry">
            <mxPoint as="offset" />
          </mxGeometry>
        </mxCell>
        <mxCell id="w0tIfuy8U9VWf7MgNWz0-113" value="数据存储" style="outlineConnect=0;dashed=0;verticalLabelPosition=bottom;verticalAlign=top;align=center;html=1;shape=mxgraph.aws3.mysql_db_instance;fillColor=#2E73B8;gradientColor=none;" parent="1" vertex="1">
          <mxGeometry x="435" y="1312" width="60" height="60" as="geometry" />
        </mxCell>
        <mxCell id="w0tIfuy8U9VWf7MgNWz0-114" style="edgeStyle=orthogonalEdgeStyle;rounded=0;orthogonalLoop=1;jettySize=auto;html=1;entryX=0;entryY=0.5;entryDx=0;entryDy=0;" parent="1" source="w0tIfuy8U9VWf7MgNWz0-115" target="w0tIfuy8U9VWf7MgNWz0-101" edge="1">
          <mxGeometry relative="1" as="geometry" />
        </mxCell>
        <mxCell id="w0tIfuy8U9VWf7MgNWz0-115" value="数据测试" style="shape=image;aspect=fixed;image=data:image/svg+xml,PD94bWwgdmVyc2lvbj0iMS4wIiBzdGFuZGFsb25lPSJubyI/PjwhRE9DVFlQRSBzdmcgUFVCTElDICItLy9XM0MvL0RURCBTVkcgMS4xLy9FTiIgImh0dHA6Ly93d3cudzMub3JnL0dyYXBoaWNzL1NWRy8xLjEvRFREL3N2ZzExLmR0ZCI+PHN2ZyB0PSIxNjkyNjE1MzEyMjg0IiBjbGFzcz0iaWNvbiIgdmlld0JveD0iMCAwIDEwMjQgMTAyNCIgdmVyc2lvbj0iMS4xIiB4bWxucz0iaHR0cDovL3d3dy53My5vcmcvMjAwMC9zdmciIHAtaWQ9IjQ2OTM1IiB4bWxuczp4bGluaz0iaHR0cDovL3d3dy53My5vcmcvMTk5OS94bGluayIgd2lkdGg9IjIwMCIgaGVpZ2h0PSIyMDAiPjxwYXRoIGQ9Ik04MjQuMzIgNDUxLjc0MTUzOFYxMTguMTUzODQ2YTM5LjM4NDYxNSAzOS4zODQ2MTUgMCAwIDAtMzkuMzg0NjE1LTM5LjM4NDYxNUgxMTguMTUzODQ2YTM5LjM4NDYxNSAzOS4zODQ2MTUgMCAwIDAtMzkuMzg0NjE1IDM5LjM4NDYxNXY0ODcuOTc1Mzg1YTM5LjM4NDYxNSAzOS4zODQ2MTUgMCAwIDAgMzkuMzg0NjE1IDM5LjM4NDYxNWgyMDUuNTg3NjkyYTM5LjM4NDYxNSAzOS4zODQ2MTUgMCAwIDEgMzkuMzg0NjE2IDM5LjM4NDYxNiAzOS4zODQ2MTUgMzkuMzg0NjE1IDAgMCAxLTM5LjM4NDYxNiAzOS4zODQ2MTVIMTE4LjE1Mzg0NmExMTguMTUzODQ2IDExOC4xNTM4NDYgMCAwIDEtMTE4LjE1Mzg0Ni0xMTguMTUzODQ2VjExOC4xNTM4NDZhMTE4LjE1Mzg0NiAxMTguMTUzODQ2IDAgMCAxIDExOC4xNTM4NDYtMTE4LjE1Mzg0Nmg2NjYuNzgxNTM5YTExOC4xNTM4NDYgMTE4LjE1Mzg0NiAwIDAgMSAxMTguMTUzODQ2IDExOC4xNTM4NDZ2MzMzLjU4NzY5MmEzOS4zODQ2MTUgMzkuMzg0NjE1IDAgMCAxLTM5LjM4NDYxNiAzOS4zODQ2MTYgMzkuMzg0NjE1IDM5LjM4NDYxNSAwIDAgMS0zOS4zODQ2MTUtMzkuMzg0NjE2eiIgcC1pZD0iNDY5MzYiIGZpbGw9IiNmZjZhMDAiPjwvcGF0aD48cGF0aCBkPSJNNTcwLjY4MzA3NyA4NjAuOTQ3NjkyYTM5LjM4NDYxNSAzOS4zODQ2MTUgMCAwIDEtMjcuNTY5MjMxLTExLjAyNzY5MmwtMTIwLjUxNjkyMy0xMTguMTUzODQ2YTM5LjM4NDYxNSAzOS4zODQ2MTUgMCAwIDEtMTEuODE1Mzg1LTI3Ljk2MzA3NyAzOS4zODQ2MTUgMzkuMzg0NjE1IDAgMCAxIDExLjgxNTM4NS0yOC4zNTY5MjNsMTIwLjUxNjkyMy0xMTguMTUzODQ2YTM5LjM4NDYxNSAzOS4zODQ2MTUgMCAwIDEgNTUuMTM4NDYyIDU2LjMybC05MS43NjYxNTQgODkuNzk2OTIzIDkxLjc2NjE1NCA4OS43OTY5MjNhMzkuMzg0NjE1IDM5LjM4NDYxNSAwIDAgMSAwIDU1LjUzMjMwOCAzOS4zODQ2MTUgMzkuMzg0NjE1IDAgMCAxLTI3LjU2OTIzMSAxMi4yMDkyM3pNODY0LjA5ODQ2MiA4NjAuOTQ3NjkyYTM5LjM4NDYxNSAzOS4zODQ2MTUgMCAwIDEtMjcuOTYzMDc3LTExLjgxNTM4NCAzOS4zODQ2MTUgMzkuMzg0NjE1IDAgMCAxIDAtNTUuNTMyMzA4bDkxLjc2NjE1My04OS43OTY5MjMtOTEuNzY2MTUzLTg5Ljc5NjkyM2EzOS4zODQ2MTUgMzkuMzg0NjE1IDAgMCAxIDU1LjEzODQ2MS01Ni4zMmwxMjAuNTE2OTIzIDExOC4xNTM4NDZhMzkuMzg0NjE1IDM5LjM4NDYxNSAwIDAgMSAxMS44MTUzODUgMjguMzU2OTIzIDM5LjM4NDYxNSAzOS4zODQ2MTUgMCAwIDEtMTEuODE1Mzg1IDI3Ljk2MzA3N2wtMTIwLjUxNjkyMyAxMTguMTUzODQ2YTM5LjM4NDYxNSAzOS4zODQ2MTUgMCAwIDEtMjcuMTc1Mzg0IDEwLjYzMzg0NnpNNjY1LjYgODUzLjg1ODQ2MmEzNi4yMzM4NDYgMzYuMjMzODQ2IDAgMCAxLTE2LjU0MTUzOC0zLjkzODQ2MiAzOS4zODQ2MTUgMzkuMzg0NjE1IDAgMCAxLTE4LjkwNDYxNi01MS45ODc2OTJsMTAzLjE4NzY5Mi0yMjEuMzQxNTM5YTM5LjM4NDYxNSAzOS4zODQ2MTUgMCAxIDEgNzEuMjg2MTU0IDMzLjA4MzA3N2wtMTAzLjE4NzY5MiAyMjEuMzQxNTM5YTM5LjM4NDYxNSAzOS4zODQ2MTUgMCAwIDEtMzUuODQgMjIuODQzMDc3ek0yNTMuMjQzMDc3IDU4Ni4wNDMwNzdhMzkuMzg0NjE1IDM5LjM4NDYxNSAwIDAgMS0zOS4zODQ2MTUtMzkuMzg0NjE1VjMzMi40MDYxNTRhMzkuMzg0NjE1IDM5LjM4NDYxNSAwIDAgMSA3OC43NjkyMyAwdjIxNC4yNTIzMDhhMzkuMzg0NjE1IDM5LjM4NDYxNSAwIDAgMS0zOS4zODQ2MTUgMzkuMzg0NjE1ek00NTcuNjQ5MjMxIDUyNy4zNmEzOS4zODQ2MTUgMzkuMzg0NjE1IDAgMCAxLTM5LjM4NDYxNi0zOS4zODQ2MTVWMjU0LjQyNDYxNWEzOS4zODQ2MTUgMzkuMzg0NjE1IDAgMSAxIDc4Ljc2OTIzMSAwdjIzMy41NTA3N2EzOS4zODQ2MTUgMzkuMzg0NjE1IDAgMCAxLTM5LjM4NDYxNSAzOS4zODQ2MTV6TTY2MS42NjE1MzggNDg5LjE1NjkyM2EzOS4zODQ2MTUgMzkuMzg0NjE1IDAgMCAxLTM5LjM4NDYxNS0zOS4zODQ2MTVWMTg3LjQ3MDc2OWEzOS4zODQ2MTUgMzkuMzg0NjE1IDAgMCAxIDc4Ljc2OTIzMSAwdjI2Mi4zMDE1MzlhMzkuMzg0NjE1IDM5LjM4NDYxNSAwIDAgMS0zOS4zODQ2MTYgMzkuMzg0NjE1ek03NDguMzA3NjkyIDk0MC44OTg0NjJhMzkuMzg0NjE1IDM5LjM4NDYxNSAwIDAgMS0zOS4zODQ2MTUgMzkuMzg0NjE1SDE5Ni45MjMwNzdhMzkuMzg0NjE1IDM5LjM4NDYxNSAwIDAgMSAwLTc4Ljc2OTIzMWg1MTJhMzkuMzg0NjE1IDM5LjM4NDYxNSAwIDAgMSAzOS4zODQ2MTUgMzkuMzg0NjE2eiIgcC1pZD0iNDY5MzciIGZpbGw9IiNmZjZhMDAiPjwvcGF0aD48L3N2Zz4=;verticalAlign=top;labelPosition=center;verticalLabelPosition=bottom;align=center;" parent="1" vertex="1">
          <mxGeometry x="97" y="1432" width="60" height="60" as="geometry" />
        </mxCell>
        <mxCell id="Yg9d-aaJOnei6kyVU1WB-1" value="BI 工具" style="shape=image;aspect=fixed;image=data:image/svg+xml,PD94bWwgdmVyc2lvbj0iMS4wIiBzdGFuZGFsb25lPSJubyI/PjwhRE9DVFlQRSBzdmcgUFVCTElDICItLy9XM0MvL0RURCBTVkcgMS4xLy9FTiIgImh0dHA6Ly93d3cudzMub3JnL0dyYXBoaWNzL1NWRy8xLjEvRFREL3N2ZzExLmR0ZCI+PHN2ZyB0PSIxNjkyODQwNjc5Nzk1IiBjbGFzcz0iaWNvbiIgdmlld0JveD0iMCAwIDEwMjQgMTAyNCIgdmVyc2lvbj0iMS4xIiB4bWxucz0iaHR0cDovL3d3dy53My5vcmcvMjAwMC9zdmciIHAtaWQ9IjU1NzczIiB4bWxuczp4bGluaz0iaHR0cDovL3d3dy53My5vcmcvMTk5OS94bGluayIgd2lkdGg9IjIwMCIgaGVpZ2h0PSIyMDAiPjxwYXRoIGQ9Ik00MjYuNjY2NjY3IDU1NC42NjY2NjdIMTcwLjY2NjY2N2MtMjMuNDY2NjY3IDAtNDIuNjY2NjY3LTE5LjItNDIuNjY2NjY3LTQyLjY2NjY2N1YxNzAuNjY2NjY3YzAtMjMuNDY2NjY3IDE5LjItNDIuNjY2NjY3IDQyLjY2NjY2Ny00Mi42NjY2NjdoMjU2YzIzLjQ2NjY2NyAwIDQyLjY2NjY2NyAxOS4yIDQyLjY2NjY2NiA0Mi42NjY2Njd2MzQxLjMzMzMzM2MwIDIzLjQ2NjY2Ny0xOS4yIDQyLjY2NjY2Ny00Mi42NjY2NjYgNDIuNjY2NjY3ek04NTMuMzMzMzMzIDg5Nkg1OTcuMzMzMzMzYy0yMy40NjY2NjcgMC00Mi42NjY2NjctMTkuMi00Mi42NjY2NjYtNDIuNjY2NjY3VjUxMmMwLTIzLjQ2NjY2NyAxOS4yLTQyLjY2NjY2NyA0Mi42NjY2NjYtNDIuNjY2NjY3aDI1NmMyMy40NjY2NjcgMCA0Mi42NjY2NjcgMTkuMiA0Mi42NjY2NjcgNDIuNjY2NjY3djM0MS4zMzMzMzNjMCAyMy40NjY2NjctMTkuMiA0Mi42NjY2NjctNDIuNjY2NjY3IDQyLjY2NjY2N3oiIGZpbGw9IiNmZjZhMDAiIHAtaWQ9IjU1Nzc0Ij48L3BhdGg+PHBhdGggZD0iTTg1My4zMzMzMzMgMzg0SDU5Ny4zMzMzMzNjLTIzLjQ2NjY2NyAwLTQyLjY2NjY2Ny0xOS4yLTQyLjY2NjY2Ni00Mi42NjY2NjdWMTcwLjY2NjY2N2MwLTIzLjQ2NjY2NyAxOS4yLTQyLjY2NjY2NyA0Mi42NjY2NjYtNDIuNjY2NjY3aDI1NmMyMy40NjY2NjcgMCA0Mi42NjY2NjcgMTkuMiA0Mi42NjY2NjcgNDIuNjY2NjY3djE3MC42NjY2NjZjMCAyMy40NjY2NjctMTkuMiA0Mi42NjY2NjctNDIuNjY2NjY3IDQyLjY2NjY2N3pNNDI2LjY2NjY2NyA4OTZIMTcwLjY2NjY2N2MtMjMuNDY2NjY3IDAtNDIuNjY2NjY3LTE5LjItNDIuNjY2NjY3LTQyLjY2NjY2N3YtMTcwLjY2NjY2NmMwLTIzLjQ2NjY2NyAxOS4yLTQyLjY2NjY2NyA0Mi42NjY2NjctNDIuNjY2NjY3aDI1NmMyMy40NjY2NjcgMCA0Mi42NjY2NjcgMTkuMiA0Mi42NjY2NjYgNDIuNjY2NjY3djE3MC42NjY2NjZjMCAyMy40NjY2NjctMTkuMiA0Mi42NjY2NjctNDIuNjY2NjY2IDQyLjY2NjY2N3oiIGZpbGw9IiNmZjZhMDAiIHAtaWQ9IjU1Nzc1Ij48L3BhdGg+PC9zdmc+;labelPosition=center;verticalLabelPosition=bottom;align=center;verticalAlign=top;" vertex="1" parent="1">
          <mxGeometry x="670" y="1432" width="60" height="60" as="geometry" />
        </mxCell>
      </root>
    </mxGraphModel>
  </diagram>
</mxfile>
